<?xml version="1.0" encoding="UTF-8" standalone="no"?>
<!-- Created with Inkscape (http://www.inkscape.org/) -->

<svg
   width="165.11427mm"
   height="112.1893mm"
   viewBox="0 0 170 120"
   version="1.1"
   id="svg1"
   xml:space="preserve"
   xmlns="http://www.w3.org/2000/svg"
   xmlns:svg="http://www.w3.org/2000/svg"
   xmlns:rdf="http://www.w3.org/1999/02/22-rdf-syntax-ns#"
   xmlns:cc="http://creativecommons.org/ns#"
   xmlns:dc="http://purl.org/dc/elements/1.1/"><title
     id="title2">Metrics</title><defs
     id="defs1"><clipPath
       clipPathUnits="userSpaceOnUse"
       id="clipPath14"><path
         d="M 65.528125,58.7 H 422.64812 V 324.812 H 65.528125 Z"
         id="path14" /></clipPath><clipPath
       clipPathUnits="userSpaceOnUse"
       id="clipPath15"><path
         d="M -9,-9 H 9 V 9 H -9 Z"
         id="path15" /></clipPath><clipPath
       clipPathUnits="userSpaceOnUse"
       id="clipPath17"><path
         d="M 65.528125,58.7 H 422.64812 V 324.812 H 65.528125 Z"
         transform="matrix(1.3333333,0,0,-1.3333333,0,442.68267)"
         id="path17" /></clipPath><clipPath
       clipPathUnits="userSpaceOnUse"
       id="clipPath18"><path
         d="M -9,-9 H 9 V 9 H -9 Z"
         transform="translate(-2.7918001e-6)"
         id="path18" /></clipPath><clipPath
       clipPathUnits="userSpaceOnUse"
       id="clipPath20"><path
         d="M 65.528125,58.7 H 422.64812 V 324.812 H 65.528125 Z"
         transform="matrix(1.3333333,0,0,-1.3333333,0,442.68267)"
         id="path20" /></clipPath><clipPath
       clipPathUnits="userSpaceOnUse"
       id="clipPath21"><path
         d="M -9,-9 H 9 V 9 H -9 Z"
         transform="translate(1.5026e-6)"
         id="path21" /></clipPath><clipPath
       clipPathUnits="userSpaceOnUse"
       id="clipPath23"><path
         d="M 65.528125,58.7 H 422.64812 V 324.812 H 65.528125 Z"
         transform="matrix(1.3333333,0,0,-1.3333333,0,442.68267)"
         id="path23" /></clipPath><clipPath
       clipPathUnits="userSpaceOnUse"
       id="clipPath24"><path
         d="M -9,-9 H 9 V 9 H -9 Z"
         id="path24" /></clipPath><clipPath
       clipPathUnits="userSpaceOnUse"
       id="clipPath26"><path
         d="M 65.528125,58.7 H 422.64812 V 324.812 H 65.528125 Z"
         transform="matrix(1.3333333,0,0,-1.3333333,0,442.68267)"
         id="path26" /></clipPath><clipPath
       clipPathUnits="userSpaceOnUse"
       id="clipPath27"><path
         d="M -9,-9 H 9 V 9 H -9 Z"
         transform="translate(2.5915e-6)"
         id="path27" /></clipPath><clipPath
       clipPathUnits="userSpaceOnUse"
       id="clipPath29"><path
         d="M 65.528125,58.7 H 422.64812 V 324.812 H 65.528125 Z"
         transform="matrix(1.3333333,0,0,-1.3333333,0,442.68267)"
         id="path29" /></clipPath><clipPath
       clipPathUnits="userSpaceOnUse"
       id="clipPath30"><path
         d="M -9,-9 H 9 V 9 H -9 Z"
         transform="translate(3.6804001e-6)"
         id="path30" /></clipPath><clipPath
       clipPathUnits="userSpaceOnUse"
       id="clipPath32"><path
         d="M 65.528125,58.7 H 422.64812 V 324.812 H 65.528125 Z"
         transform="matrix(1.3333333,0,0,-1.3333333,0,442.68267)"
         id="path32" /></clipPath><clipPath
       clipPathUnits="userSpaceOnUse"
       id="clipPath33"><path
         d="M -9,-9 H 9 V 9 H -9 Z"
         transform="translate(-2.7307001e-6)"
         id="path33" /></clipPath><clipPath
       clipPathUnits="userSpaceOnUse"
       id="clipPath35"><path
         d="M 65.528125,58.7 H 422.64812 V 324.812 H 65.528125 Z"
         transform="matrix(1.3333333,0,0,-1.3333333,0,442.68267)"
         id="path35" /></clipPath><clipPath
       clipPathUnits="userSpaceOnUse"
       id="clipPath36"><path
         d="M -9,-9 H 9 V 9 H -9 Z"
         transform="translate(-1.6418001e-6)"
         id="path36" /></clipPath><clipPath
       clipPathUnits="userSpaceOnUse"
       id="clipPath38"><path
         d="M 65.528125,58.7 H 422.64812 V 324.812 H 65.528125 Z"
         transform="matrix(1.3333333,0,0,-1.3333333,0,442.68267)"
         id="path38" /></clipPath><clipPath
       clipPathUnits="userSpaceOnUse"
       id="clipPath39"><path
         d="M -9,-9 H 9 V 9 H -9 Z"
         id="path39" /></clipPath><clipPath
       clipPathUnits="userSpaceOnUse"
       id="clipPath41"><path
         d="M 65.528125,58.7 H 422.64812 V 324.812 H 65.528125 Z"
         transform="matrix(1.3333333,0,0,-1.3333333,0,442.68267)"
         id="path41" /></clipPath><clipPath
       clipPathUnits="userSpaceOnUse"
       id="clipPath42"><path
         d="M -9,-9 H 9 V 9 H -9 Z"
         id="path42" /></clipPath><clipPath
       clipPathUnits="userSpaceOnUse"
       id="clipPath44"><path
         d="M 65.528125,58.7 H 422.64812 V 324.812 H 65.528125 Z"
         transform="matrix(1.3333333,0,0,-1.3333333,0,442.68267)"
         id="path44" /></clipPath><clipPath
       clipPathUnits="userSpaceOnUse"
       id="clipPath45"><path
         d="M -9,-9 H 9 V 9 H -9 Z"
         transform="translate(1.6249001e-6)"
         id="path45" /></clipPath><clipPath
       clipPathUnits="userSpaceOnUse"
       id="clipPath47"><path
         d="M 65.528125,58.7 H 422.64812 V 324.812 H 65.528125 Z"
         transform="matrix(1.3333333,0,0,-1.3333333,0,442.68267)"
         id="path47" /></clipPath><clipPath
       clipPathUnits="userSpaceOnUse"
       id="clipPath48"><path
         d="M -9,-9 H 9 V 9 H -9 Z"
         transform="translate(-2.2727e-6)"
         id="path48" /></clipPath><clipPath
       clipPathUnits="userSpaceOnUse"
       id="clipPath50"><path
         d="M 65.528125,58.7 H 422.64812 V 324.812 H 65.528125 Z"
         transform="matrix(1.3333333,0,0,-1.3333333,0,442.68267)"
         id="path50" /></clipPath><clipPath
       clipPathUnits="userSpaceOnUse"
       id="clipPath61"><path
         d="M 65.528125,58.7 H 422.64812 V 324.812 H 65.528125 Z"
         id="path61" /></clipPath><clipPath
       clipPathUnits="userSpaceOnUse"
       id="clipPath67"><path
         d="M 65.528125,58.7 H 422.64812 V 324.812 H 65.528125 Z"
         id="path67" /></clipPath><clipPath
       clipPathUnits="userSpaceOnUse"
       id="clipPath68"><path
         d="M -9,-9 H 9 V 9 H -9 Z"
         id="path68" /></clipPath><clipPath
       clipPathUnits="userSpaceOnUse"
       id="clipPath70"><path
         d="M 65.528125,58.7 H 422.64812 V 324.812 H 65.528125 Z"
         transform="matrix(1.3333333,0,0,-1.3333333,0,442.68267)"
         id="path70" /></clipPath><clipPath
       clipPathUnits="userSpaceOnUse"
       id="clipPath71"><path
         d="M -9,-9 H 9 V 9 H -9 Z"
         transform="translate(-2.7918001e-6)"
         id="path71" /></clipPath><clipPath
       clipPathUnits="userSpaceOnUse"
       id="clipPath73"><path
         d="M 65.528125,58.7 H 422.64812 V 324.812 H 65.528125 Z"
         transform="matrix(1.3333333,0,0,-1.3333333,0,442.68267)"
         id="path73" /></clipPath><clipPath
       clipPathUnits="userSpaceOnUse"
       id="clipPath74"><path
         d="M -9,-9 H 9 V 9 H -9 Z"
         transform="translate(1.5026e-6)"
         id="path74" /></clipPath><clipPath
       clipPathUnits="userSpaceOnUse"
       id="clipPath76"><path
         d="M 65.528125,58.7 H 422.64812 V 324.812 H 65.528125 Z"
         transform="matrix(1.3333333,0,0,-1.3333333,0,442.68267)"
         id="path76" /></clipPath><clipPath
       clipPathUnits="userSpaceOnUse"
       id="clipPath77"><path
         d="M -9,-9 H 9 V 9 H -9 Z"
         id="path77" /></clipPath><clipPath
       clipPathUnits="userSpaceOnUse"
       id="clipPath79"><path
         d="M 65.528125,58.7 H 422.64812 V 324.812 H 65.528125 Z"
         transform="matrix(1.3333333,0,0,-1.3333333,0,442.68267)"
         id="path79" /></clipPath><clipPath
       clipPathUnits="userSpaceOnUse"
       id="clipPath80"><path
         d="M -9,-9 H 9 V 9 H -9 Z"
         transform="translate(2.5915e-6)"
         id="path80" /></clipPath><clipPath
       clipPathUnits="userSpaceOnUse"
       id="clipPath82"><path
         d="M 65.528125,58.7 H 422.64812 V 324.812 H 65.528125 Z"
         transform="matrix(1.3333333,0,0,-1.3333333,0,442.68267)"
         id="path82" /></clipPath><clipPath
       clipPathUnits="userSpaceOnUse"
       id="clipPath83"><path
         d="M -9,-9 H 9 V 9 H -9 Z"
         transform="translate(3.6804001e-6)"
         id="path83" /></clipPath><clipPath
       clipPathUnits="userSpaceOnUse"
       id="clipPath85"><path
         d="M 65.528125,58.7 H 422.64812 V 324.812 H 65.528125 Z"
         transform="matrix(1.3333333,0,0,-1.3333333,0,442.68267)"
         id="path85" /></clipPath><clipPath
       clipPathUnits="userSpaceOnUse"
       id="clipPath86"><path
         d="M -9,-9 H 9 V 9 H -9 Z"
         transform="translate(-2.7307001e-6)"
         id="path86" /></clipPath><clipPath
       clipPathUnits="userSpaceOnUse"
       id="clipPath88"><path
         d="M 65.528125,58.7 H 422.64812 V 324.812 H 65.528125 Z"
         transform="matrix(1.3333333,0,0,-1.3333333,0,442.68267)"
         id="path88" /></clipPath><clipPath
       clipPathUnits="userSpaceOnUse"
       id="clipPath89"><path
         d="M -9,-9 H 9 V 9 H -9 Z"
         transform="translate(-1.6418001e-6)"
         id="path89" /></clipPath><clipPath
       clipPathUnits="userSpaceOnUse"
       id="clipPath91"><path
         d="M 65.528125,58.7 H 422.64812 V 324.812 H 65.528125 Z"
         transform="matrix(1.3333333,0,0,-1.3333333,0,442.68267)"
         id="path91" /></clipPath><clipPath
       clipPathUnits="userSpaceOnUse"
       id="clipPath92"><path
         d="M -9,-9 H 9 V 9 H -9 Z"
         id="path92" /></clipPath><clipPath
       clipPathUnits="userSpaceOnUse"
       id="clipPath94"><path
         d="M 65.528125,58.7 H 422.64812 V 324.812 H 65.528125 Z"
         transform="matrix(1.3333333,0,0,-1.3333333,0,442.68267)"
         id="path94" /></clipPath><clipPath
       clipPathUnits="userSpaceOnUse"
       id="clipPath95"><path
         d="M -9,-9 H 9 V 9 H -9 Z"
         id="path95" /></clipPath><clipPath
       clipPathUnits="userSpaceOnUse"
       id="clipPath97"><path
         d="M 65.528125,58.7 H 422.64812 V 324.812 H 65.528125 Z"
         transform="matrix(1.3333333,0,0,-1.3333333,0,442.68267)"
         id="path97" /></clipPath><clipPath
       clipPathUnits="userSpaceOnUse"
       id="clipPath98"><path
         d="M -9,-9 H 9 V 9 H -9 Z"
         transform="translate(1.6249001e-6)"
         id="path98" /></clipPath><clipPath
       clipPathUnits="userSpaceOnUse"
       id="clipPath100"><path
         d="M 65.528125,58.7 H 422.64812 V 324.812 H 65.528125 Z"
         transform="matrix(1.3333333,0,0,-1.3333333,0,442.68267)"
         id="path100" /></clipPath><clipPath
       clipPathUnits="userSpaceOnUse"
       id="clipPath101"><path
         d="M -9,-9 H 9 V 9 H -9 Z"
         transform="translate(-2.2727e-6)"
         id="path101" /></clipPath><clipPath
       clipPathUnits="userSpaceOnUse"
       id="clipPath103"><path
         d="M 65.528125,58.7 H 422.64812 V 324.812 H 65.528125 Z"
         transform="matrix(1.3333333,0,0,-1.3333333,0,442.68267)"
         id="path103" /></clipPath></defs><g
     id="g1"
     transform="matrix(0.26458333,0,0,0.26458334,-3.7947033,-2.0410618)"><path
       id="path1"
       d="M 0,0 H 482.78562 V 332.012 H 0 Z"
       style="fill:#ffffff;fill-opacity:1;fill-rule:nonzero;stroke:none"
       transform="matrix(1.3333333,0,0,-1.3333333,0,442.68267)" /><g
       id="g2"
       transform="translate(4.7335182,-1.352433)"><path
         id="path2"
         d="M 65.528125,58.7 H 422.64812 V 324.812 H 65.528125 Z"
         style="fill:#ffffff;fill-opacity:1;fill-rule:nonzero;stroke:none"
         transform="matrix(1.3333333,0,0,-1.3333333,0,442.68267)" /><path
         id="path3"
         d="M 77.72286,58.7 V 55.2"
         style="fill:#000000;fill-opacity:1;fill-rule:nonzero;stroke:#000000;stroke-width:0.8;stroke-linecap:butt;stroke-linejoin:round;stroke-miterlimit:10;stroke-dasharray:none;stroke-opacity:1"
         transform="matrix(1.3333333,0,0,-1.3333333,0,442.68267)" /><text
         id="text3"
         xml:space="preserve"
         transform="matrix(1.3333333,0,0,1.3333333,96.963814,392.27017)"><tspan
           id="tspan3"
           style="font-variant:normal;font-weight:normal;font-size:20px;font-family:'Times New Roman';writing-mode:lr-tb;fill:#000000;fill-opacity:1;fill-rule:nonzero;stroke:none"
           x="0"
           y="0">0</tspan></text><path
         id="path4"
         d="M 158.4827,58.7 V 55.2"
         style="fill:#000000;fill-opacity:1;fill-rule:nonzero;stroke:#000000;stroke-width:0.8;stroke-linecap:butt;stroke-linejoin:round;stroke-miterlimit:10;stroke-dasharray:none;stroke-opacity:1"
         transform="matrix(1.3333333,0,0,-1.3333333,0,442.68267)" /><text
         id="text4"
         xml:space="preserve"
         transform="matrix(1.3333333,0,0,1.3333333,184.6436,392.27017)"><tspan
           id="tspan4"
           style="font-variant:normal;font-weight:normal;font-size:20px;font-family:'Times New Roman';writing-mode:lr-tb;fill:#000000;fill-opacity:1;fill-rule:nonzero;stroke:none"
           x="0"
           y="0">2000</tspan></text><path
         id="path5"
         d="M 239.24253,58.7 V 55.2"
         style="fill:#000000;fill-opacity:1;fill-rule:nonzero;stroke:#000000;stroke-width:0.8;stroke-linecap:butt;stroke-linejoin:round;stroke-miterlimit:10;stroke-dasharray:none;stroke-opacity:1"
         transform="matrix(1.3333333,0,0,-1.3333333,0,442.68267)" /><text
         id="text5"
         xml:space="preserve"
         transform="matrix(1.3333333,0,0,1.3333333,292.32338,392.27017)"><tspan
           id="tspan5"
           style="font-variant:normal;font-weight:normal;font-size:20px;font-family:'Times New Roman';writing-mode:lr-tb;fill:#000000;fill-opacity:1;fill-rule:nonzero;stroke:none"
           x="0"
           y="0">4000</tspan></text><path
         id="path6"
         d="M 320.00237,58.7 V 55.2"
         style="fill:#000000;fill-opacity:1;fill-rule:nonzero;stroke:#000000;stroke-width:0.8;stroke-linecap:butt;stroke-linejoin:round;stroke-miterlimit:10;stroke-dasharray:none;stroke-opacity:1"
         transform="matrix(1.3333333,0,0,-1.3333333,0,442.68267)" /><text
         id="text6"
         xml:space="preserve"
         transform="matrix(1.3333333,0,0,1.3333333,400.00316,392.27017)"><tspan
           id="tspan6"
           style="font-variant:normal;font-weight:normal;font-size:20px;font-family:'Times New Roman';writing-mode:lr-tb;fill:#000000;fill-opacity:1;fill-rule:nonzero;stroke:none"
           x="0"
           y="0">6000</tspan></text><path
         id="path7"
         d="M 400.76221,58.7 V 55.2"
         style="fill:#000000;fill-opacity:1;fill-rule:nonzero;stroke:#000000;stroke-width:0.8;stroke-linecap:butt;stroke-linejoin:round;stroke-miterlimit:10;stroke-dasharray:none;stroke-opacity:1"
         transform="matrix(1.3333333,0,0,-1.3333333,0,442.68267)" /><text
         id="text7"
         xml:space="preserve"
         transform="matrix(1.3333333,0,0,1.3333333,507.68295,392.27017)"><tspan
           id="tspan7"
           style="font-variant:normal;font-weight:normal;font-size:20px;font-family:'Times New Roman';writing-mode:lr-tb;fill:#000000;fill-opacity:1;fill-rule:nonzero;stroke:none"
           x="0"
           y="0">8000</tspan></text><text
         id="text8"
         xml:space="preserve"
         transform="matrix(1.3333333,0,0,1.3333333,192.14875,425.89517)"><tspan
           id="tspan8"
           style="font-variant:normal;font-weight:700;font-size:25px;font-family:'Times New Roman';writing-mode:lr-tb;fill:#000000;fill-opacity:1;fill-rule:nonzero;stroke:none"
           x="0"
           y="0">Packet Size (bytes)</tspan></text><path
         id="path8"
         d="m 65.528125,64.593562 h -3.5"
         style="fill:#000000;fill-opacity:1;fill-rule:nonzero;stroke:#000000;stroke-width:0.8;stroke-linecap:butt;stroke-linejoin:round;stroke-miterlimit:10;stroke-dasharray:none;stroke-opacity:1"
         transform="matrix(1.3333333,0,0,-1.3333333,0,442.68267)" /><text
         id="text9"
         xml:space="preserve"
         transform="matrix(1.3333333,0,0,1.3333333,44.704167,365.81833)"><tspan
           id="tspan9"
           style="font-variant:normal;font-weight:normal;font-size:20px;font-family:'Times New Roman';writing-mode:lr-tb;fill:#000000;fill-opacity:1;fill-rule:nonzero;stroke:none"
           x="0"
           y="0">0.0</tspan></text><path
         id="path9"
         d="m 65.528125,142.10394 h -3.5"
         style="fill:#000000;fill-opacity:1;fill-rule:nonzero;stroke:#000000;stroke-width:0.8;stroke-linecap:butt;stroke-linejoin:round;stroke-miterlimit:10;stroke-dasharray:none;stroke-opacity:1"
         transform="matrix(1.3333333,0,0,-1.3333333,0,442.68267)" /><text
         id="text10"
         xml:space="preserve"
         transform="matrix(1.3333333,0,0,1.3333333,44.704167,262.47116)"><tspan
           id="tspan10"
           style="font-variant:normal;font-weight:normal;font-size:20px;font-family:'Times New Roman';writing-mode:lr-tb;fill:#000000;fill-opacity:1;fill-rule:nonzero;stroke:none"
           x="0"
           y="0">0.5</tspan></text><path
         id="path10"
         d="m 65.528125,219.61432 h -3.5"
         style="fill:#000000;fill-opacity:1;fill-rule:nonzero;stroke:#000000;stroke-width:0.8;stroke-linecap:butt;stroke-linejoin:round;stroke-miterlimit:10;stroke-dasharray:none;stroke-opacity:1"
         transform="matrix(1.3333333,0,0,-1.3333333,0,442.68267)" /><text
         id="text11"
         xml:space="preserve"
         transform="matrix(1.3333333,0,0,1.3333333,44.704167,159.12399)"><tspan
           id="tspan11"
           style="font-variant:normal;font-weight:normal;font-size:20px;font-family:'Times New Roman';writing-mode:lr-tb;fill:#000000;fill-opacity:1;fill-rule:nonzero;stroke:none"
           x="0"
           y="0">1.0</tspan></text><path
         id="path11"
         d="m 65.528125,297.1247 h -3.5"
         style="fill:#000000;fill-opacity:1;fill-rule:nonzero;stroke:#000000;stroke-width:0.8;stroke-linecap:butt;stroke-linejoin:round;stroke-miterlimit:10;stroke-dasharray:none;stroke-opacity:1"
         transform="matrix(1.3333333,0,0,-1.3333333,0,442.68267)" /><text
         id="text12"
         xml:space="preserve"
         transform="matrix(1.3333333,0,0,1.3333333,44.704167,55.776814)"><tspan
           id="tspan12"
           style="font-variant:normal;font-weight:normal;font-size:20px;font-family:'Times New Roman';writing-mode:lr-tb;fill:#000000;fill-opacity:1;fill-rule:nonzero;stroke:none"
           x="0"
           y="0">1.5</tspan></text><text
         id="text13"
         xml:space="preserve"
         transform="matrix(0,-1.3333333,1.3333333,0,32.183333,329.78925)"><tspan
           id="tspan13"
           style="font-variant:normal;font-weight:700;font-size:25px;font-family:'Times New Roman';writing-mode:lr-tb;fill:#000000;fill-opacity:1;fill-rule:nonzero;stroke:none"
           x="0"
           dx="0 0 0 -0.4375"
           y="0">Throughput (Mbps)</tspan></text><path
         id="path13"
         d="m 81.760852,70.796 16.151968,24.811712 20.18996,31.019738 18.97856,29.13081 21.40136,32.89384 40.37992,62.03964 40.37991,62.02426 40.37992,-106.11502 40.37992,29.20697 40.37992,-17.40912 40.37992,17.13816 5.65319,-1.43583"
         style="fill:none;stroke:#0000ff;stroke-width:1.5;stroke-linecap:square;stroke-linejoin:round;stroke-miterlimit:10;stroke-dasharray:none;stroke-opacity:1"
         transform="matrix(1.3333333,0,0,-1.3333333,0,442.68267)"
         clip-path="url(#clipPath14)" /><g
         id="g16"
         clip-path="url(#clipPath17)"><path
           d="m 0,-4 c 1.060812,0 2.078319,0.421465 2.828427,1.171573 C 3.578535,-2.078319 4,-1.060812 4,0 4,1.060812 3.578535,2.078319 2.828427,2.828427 2.078319,3.578535 1.060812,4 0,4 -1.060812,4 -2.078319,3.578535 -2.828427,2.828427 -3.578535,2.078319 -4,1.060812 -4,0 -4,-1.060812 -3.578535,-2.078319 -2.828427,-2.828427 -2.078319,-3.578535 -1.060812,-4 0,-4 Z"
           style="fill:#0000ff;fill-opacity:1;fill-rule:nonzero;stroke:#0000ff;stroke-width:1;stroke-linecap:butt;stroke-linejoin:round;stroke-miterlimit:10;stroke-dasharray:none;stroke-opacity:1"
           transform="matrix(1.3333333,0,0,-1.3333333,109.01447,348.288)"
           clip-path="url(#clipPath15)"
           id="path16" /></g><g
         id="g19"
         clip-path="url(#clipPath20)"><path
           d="m 0,-4 c 1.060812,0 2.078319,0.421465 2.828427,1.171573 C 3.578535,-2.078319 4,-1.060812 4,0 4,1.060812 3.578535,2.078319 2.828427,2.828427 2.078319,3.578535 1.060812,4 0,4 -1.060812,4 -2.078319,3.578535 -2.828427,2.828427 -3.578535,2.078319 -4,1.060812 -4,0 -4,-1.060812 -3.578535,-2.078319 -2.828427,-2.828427 -2.078319,-3.578535 -1.060812,-4 0,-4 Z"
           style="fill:#0000ff;fill-opacity:1;fill-rule:nonzero;stroke:#0000ff;stroke-width:1;stroke-linecap:butt;stroke-linejoin:round;stroke-miterlimit:10;stroke-dasharray:none;stroke-opacity:1"
           transform="matrix(1.3333333,0,0,-1.3333333,130.55043,315.20572)"
           clip-path="url(#clipPath18)"
           id="path19" /></g><g
         id="g22"
         clip-path="url(#clipPath23)"><path
           d="m 0,-4 c 1.060812,0 2.078319,0.421465 2.828427,1.171573 C 3.578535,-2.078319 4,-1.060812 4,0 4,1.060812 3.578535,2.078319 2.828427,2.828427 2.078319,3.578535 1.060812,4 0,4 -1.060812,4 -2.078319,3.578535 -2.828427,2.828427 -3.578535,2.078319 -4,1.060812 -4,0 -4,-1.060812 -3.578535,-2.078319 -2.828427,-2.828427 -2.078319,-3.578535 -1.060812,-4 0,-4 Z"
           style="fill:#0000ff;fill-opacity:1;fill-rule:nonzero;stroke:#0000ff;stroke-width:1;stroke-linecap:butt;stroke-linejoin:round;stroke-miterlimit:10;stroke-dasharray:none;stroke-opacity:1"
           transform="matrix(1.3333333,0,0,-1.3333333,157.47037,273.84607)"
           clip-path="url(#clipPath21)"
           id="path22" /></g><g
         id="g25"
         clip-path="url(#clipPath26)"><path
           d="m 0,-4 c 1.060812,0 2.078319,0.421465 2.828427,1.171573 C 3.578535,-2.078319 4,-1.060812 4,0 4,1.060812 3.578535,2.078319 2.828427,2.828427 2.078319,3.578535 1.060812,4 0,4 -1.060812,4 -2.078319,3.578535 -2.828427,2.828427 -3.578535,2.078319 -4,1.060812 -4,0 -4,-1.060812 -3.578535,-2.078319 -2.828427,-2.828427 -2.078319,-3.578535 -1.060812,-4 0,-4 Z"
           style="fill:#0000ff;fill-opacity:1;fill-rule:nonzero;stroke:#0000ff;stroke-width:1;stroke-linecap:butt;stroke-linejoin:round;stroke-miterlimit:10;stroke-dasharray:none;stroke-opacity:1"
           transform="matrix(1.3333333,0,0,-1.3333333,182.77512,235.00499)"
           clip-path="url(#clipPath24)"
           id="path25" /></g><g
         id="g28"
         clip-path="url(#clipPath29)"><path
           d="m 0,-4 c 1.060812,0 2.078319,0.421465 2.828427,1.171573 C 3.578535,-2.078319 4,-1.060812 4,0 4,1.060812 3.578535,2.078319 2.828427,2.828427 2.078319,3.578535 1.060812,4 0,4 -1.060812,4 -2.078319,3.578535 -2.828427,2.828427 -3.578535,2.078319 -4,1.060812 -4,0 -4,-1.060812 -3.578535,-2.078319 -2.828427,-2.828427 -2.078319,-3.578535 -1.060812,-4 0,-4 Z"
           style="fill:#0000ff;fill-opacity:1;fill-rule:nonzero;stroke:#0000ff;stroke-width:1;stroke-linecap:butt;stroke-linejoin:round;stroke-miterlimit:10;stroke-dasharray:none;stroke-opacity:1"
           transform="matrix(1.3333333,0,0,-1.3333333,211.31026,191.14653)"
           clip-path="url(#clipPath27)"
           id="path28" /></g><g
         id="g31"
         clip-path="url(#clipPath32)"><path
           d="m 0,-4 c 1.060812,0 2.078319,0.421465 2.828427,1.171573 C 3.578535,-2.078319 4,-1.060812 4,0 4,1.060812 3.578535,2.078319 2.828427,2.828427 2.078319,3.578535 1.060812,4 0,4 -1.060812,4 -2.078319,3.578535 -2.828427,2.828427 -3.578535,2.078319 -4,1.060812 -4,0 -4,-1.060812 -3.578535,-2.078319 -2.828427,-2.828427 -2.078319,-3.578535 -1.060812,-4 0,-4 Z"
           style="fill:#0000ff;fill-opacity:1;fill-rule:nonzero;stroke:#0000ff;stroke-width:1;stroke-linecap:butt;stroke-linejoin:round;stroke-miterlimit:10;stroke-dasharray:none;stroke-opacity:1"
           transform="matrix(1.3333333,0,0,-1.3333333,265.15015,108.42701)"
           clip-path="url(#clipPath30)"
           id="path31" /></g><g
         id="g34"
         clip-path="url(#clipPath35)"><path
           d="m 0,-4 c 1.060812,0 2.078319,0.421465 2.828427,1.171573 C 3.578535,-2.078319 4,-1.060812 4,0 4,1.060812 3.578535,2.078319 2.828427,2.828427 2.078319,3.578535 1.060812,4 0,4 -1.060812,4 -2.078319,3.578535 -2.828427,2.828427 -3.578535,2.078319 -4,1.060812 -4,0 -4,-1.060812 -3.578535,-2.078319 -2.828427,-2.828427 -2.078319,-3.578535 -1.060812,-4 0,-4 Z"
           style="fill:#0000ff;fill-opacity:1;fill-rule:nonzero;stroke:#0000ff;stroke-width:1;stroke-linecap:butt;stroke-linejoin:round;stroke-miterlimit:10;stroke-dasharray:none;stroke-opacity:1"
           transform="matrix(1.3333333,0,0,-1.3333333,318.99005,25.728)"
           clip-path="url(#clipPath33)"
           id="path34" /></g><g
         id="g37"
         clip-path="url(#clipPath38)"><path
           d="m 0,-4 c 1.060812,0 2.078319,0.421465 2.828427,1.171573 C 3.578535,-2.078319 4,-1.060812 4,0 4,1.060812 3.578535,2.078319 2.828427,2.828427 2.078319,3.578535 1.060812,4 0,4 -1.060812,4 -2.078319,3.578535 -2.828427,2.828427 -3.578535,2.078319 -4,1.060812 -4,0 -4,-1.060812 -3.578535,-2.078319 -2.828427,-2.828427 -2.078319,-3.578535 -1.060812,-4 0,-4 Z"
           style="fill:#0000ff;fill-opacity:1;fill-rule:nonzero;stroke:#0000ff;stroke-width:1;stroke-linecap:butt;stroke-linejoin:round;stroke-miterlimit:10;stroke-dasharray:none;stroke-opacity:1"
           transform="matrix(1.3333333,0,0,-1.3333333,372.82994,167.2147)"
           clip-path="url(#clipPath36)"
           id="path37" /></g><g
         id="g40"
         clip-path="url(#clipPath41)"><path
           d="m 0,-4 c 1.060812,0 2.078319,0.421465 2.828427,1.171573 C 3.578535,-2.078319 4,-1.060812 4,0 4,1.060812 3.578535,2.078319 2.828427,2.828427 2.078319,3.578535 1.060812,4 0,4 -1.060812,4 -2.078319,3.578535 -2.828427,2.828427 -3.578535,2.078319 -4,1.060812 -4,0 -4,-1.060812 -3.578535,-2.078319 -2.828427,-2.828427 -2.078319,-3.578535 -1.060812,-4 0,-4 Z"
           style="fill:#0000ff;fill-opacity:1;fill-rule:nonzero;stroke:#0000ff;stroke-width:1;stroke-linecap:butt;stroke-linejoin:round;stroke-miterlimit:10;stroke-dasharray:none;stroke-opacity:1"
           transform="matrix(1.3333333,0,0,-1.3333333,426.66983,128.27207)"
           clip-path="url(#clipPath39)"
           id="path40" /></g><g
         id="g43"
         clip-path="url(#clipPath44)"><path
           d="m 0,-4 c 1.060812,0 2.078319,0.421465 2.828427,1.171573 C 3.578535,-2.078319 4,-1.060812 4,0 4,1.060812 3.578535,2.078319 2.828427,2.828427 2.078319,3.578535 1.060812,4 0,4 -1.060812,4 -2.078319,3.578535 -2.828427,2.828427 -3.578535,2.078319 -4,1.060812 -4,0 -4,-1.060812 -3.578535,-2.078319 -2.828427,-2.828427 -2.078319,-3.578535 -1.060812,-4 0,-4 Z"
           style="fill:#0000ff;fill-opacity:1;fill-rule:nonzero;stroke:#0000ff;stroke-width:1;stroke-linecap:butt;stroke-linejoin:round;stroke-miterlimit:10;stroke-dasharray:none;stroke-opacity:1"
           transform="matrix(1.3333333,0,0,-1.3333333,480.50972,151.48423)"
           clip-path="url(#clipPath42)"
           id="path43" /></g><g
         id="g46"
         clip-path="url(#clipPath47)"><path
           d="m 0,-4 c 1.060812,0 2.078319,0.421465 2.828427,1.171573 C 3.578535,-2.078319 4,-1.060812 4,0 4,1.060812 3.578535,2.078319 2.828427,2.828427 2.078319,3.578535 1.060812,4 0,4 -1.060812,4 -2.078319,3.578535 -2.828427,2.828427 -3.578535,2.078319 -4,1.060812 -4,0 -4,-1.060812 -3.578535,-2.078319 -2.828427,-2.828427 -2.078319,-3.578535 -1.060812,-4 0,-4 Z"
           style="fill:#0000ff;fill-opacity:1;fill-rule:nonzero;stroke:#0000ff;stroke-width:1;stroke-linecap:butt;stroke-linejoin:round;stroke-miterlimit:10;stroke-dasharray:none;stroke-opacity:1"
           transform="matrix(1.3333333,0,0,-1.3333333,534.34961,128.63335)"
           clip-path="url(#clipPath45)"
           id="path46" /></g><g
         id="g49"
         clip-path="url(#clipPath50)"><path
           d="m 0,-4 c 1.060812,0 2.078319,0.421465 2.828427,1.171573 C 3.578535,-2.078319 4,-1.060812 4,0 4,1.060812 3.578535,2.078319 2.828427,2.828427 2.078319,3.578535 1.060812,4 0,4 -1.060812,4 -2.078319,3.578535 -2.828427,2.828427 -3.578535,2.078319 -4,1.060812 -4,0 -4,-1.060812 -3.578535,-2.078319 -2.828427,-2.828427 -2.078319,-3.578535 -1.060812,-4 0,-4 Z"
           style="fill:#0000ff;fill-opacity:1;fill-rule:nonzero;stroke:#0000ff;stroke-width:1;stroke-linecap:butt;stroke-linejoin:round;stroke-miterlimit:10;stroke-dasharray:none;stroke-opacity:1"
           transform="matrix(1.3333333,0,0,-1.3333333,541.8872,130.54779)"
           clip-path="url(#clipPath48)"
           id="path49" /></g><path
         id="path51"
         d="M 65.528125,58.7 V 324.812"
         style="fill:none;stroke:#000000;stroke-width:0.8;stroke-linecap:square;stroke-linejoin:miter;stroke-miterlimit:10;stroke-dasharray:none;stroke-opacity:1"
         transform="matrix(1.3333333,0,0,-1.3333333,0,442.68267)" /><path
         id="path52"
         d="M 422.64812,58.7 V 324.812"
         style="fill:none;stroke:#000000;stroke-width:0.8;stroke-linecap:square;stroke-linejoin:miter;stroke-miterlimit:10;stroke-dasharray:none;stroke-opacity:1"
         transform="matrix(1.3333333,0,0,-1.3333333,0,442.68267)" /><path
         id="path53"
         d="M 65.528125,58.7 H 422.64812"
         style="fill:none;stroke:#000000;stroke-width:0.8;stroke-linecap:square;stroke-linejoin:miter;stroke-miterlimit:10;stroke-dasharray:none;stroke-opacity:1"
         transform="matrix(1.3333333,0,0,-1.3333333,0,442.68267)" /><path
         id="path54"
         d="M 65.528125,324.812 H 422.64812"
         style="fill:none;stroke:#000000;stroke-width:0.8;stroke-linecap:square;stroke-linejoin:miter;stroke-miterlimit:10;stroke-dasharray:none;stroke-opacity:1"
         transform="matrix(1.3333333,0,0,-1.3333333,0,442.68267)" /><path
         id="path55"
         d="m 157.72,70.7 h 248.12812 c 3.2,0 4.8,1.6 4.8,4.8 v 65.52813 c 0,3.19999 -1.6,4.8 -4.8,4.8 H 157.72 c -3.2,0 -4.8,-1.60001 -4.8,-4.8 V 75.5 c 0,-3.2 1.6,-4.8 4.8,-4.8 z"
         style="fill:#ffffff;fill-opacity:0.8;fill-rule:nonzero;stroke:#cccccc;stroke-width:1;stroke-linecap:butt;stroke-linejoin:miter;stroke-miterlimit:10;stroke-dasharray:none;stroke-opacity:0.8"
         transform="matrix(1.3333333,0,0,-1.3333333,0,442.68267)" /><path
         id="path56"
         d="m 162.52,127.82813 h 24 24"
         style="fill:none;stroke:#0000ff;stroke-width:1.5;stroke-linecap:square;stroke-linejoin:round;stroke-miterlimit:10;stroke-dasharray:none;stroke-opacity:1"
         transform="matrix(1.3333333,0,0,-1.3333333,0,442.68267)" /><path
         id="path57"
         d="m 186.52,123.82813 c 1.06081,0 2.07832,0.42146 2.82843,1.17157 0.7501,0.75011 1.17157,1.76761 1.17157,2.82843 0,1.06081 -0.42147,2.07831 -1.17157,2.82842 -0.75011,0.75011 -1.76762,1.17158 -2.82843,1.17158 -1.06081,0 -2.07832,-0.42147 -2.82843,-1.17158 -0.75011,-0.75011 -1.17157,-1.76761 -1.17157,-2.82842 0,-1.06082 0.42146,-2.07832 1.17157,-2.82843 0.75011,-0.75011 1.76762,-1.17157 2.82843,-1.17157 z"
         style="fill:#0000ff;fill-opacity:1;fill-rule:nonzero;stroke:#0000ff;stroke-width:1;stroke-linecap:butt;stroke-linejoin:round;stroke-miterlimit:10;stroke-dasharray:none;stroke-opacity:1"
         transform="matrix(1.3333333,0,0,-1.3333333,0,442.68267)" /><text
         id="text57"
         xml:space="preserve"
         style="font-size:37.3333px;stroke-width:1.33333"
         x="284.29333"
         y="283.44516"><tspan
           id="tspan57"
           style="font-variant:normal;font-weight:normal;font-size:37.3333px;font-family:'Times New Roman';writing-mode:lr-tb;fill:#000000;fill-opacity:1;fill-rule:nonzero;stroke:none;stroke-width:1.33333"
           x="284.29333"
           y="283.44516">Throughput </tspan></text><path
         id="path58"
         d="m 162.52,93.840625 h 24 24"
         style="fill:none;stroke:#ff0000;stroke-width:1.5;stroke-linecap:butt;stroke-linejoin:round;stroke-miterlimit:10;stroke-dasharray:5.55, 2.4;stroke-dashoffset:0;stroke-opacity:1"
         transform="matrix(1.3333333,0,0,-1.3333333,0,442.68267)" /><path
         id="path59"
         d="m 182.52,89.840625 h 8 v 8 h -8 z"
         style="fill:#ff0000;fill-opacity:1;fill-rule:nonzero;stroke:#ff0000;stroke-width:1;stroke-linecap:butt;stroke-linejoin:miter;stroke-miterlimit:10;stroke-dasharray:none;stroke-opacity:1"
         transform="matrix(1.3333333,0,0,-1.3333333,0,442.68267)" /><text
         id="text59"
         xml:space="preserve"
         style="font-size:37.3333px;stroke-width:1.33333"
         x="288.29333"
         y="328.76184"><tspan
           id="tspan59"
           style="font-variant:normal;font-weight:normal;font-size:37.3333px;font-family:'Times New Roman';writing-mode:lr-tb;fill:#000000;fill-opacity:1;fill-rule:nonzero;stroke:none;stroke-width:1.33333"
           x="288.29333"
           y="328.76184">Packet Loss Rate </tspan></text><path
         id="path60"
         d="m 239.24253,307.716 c 1.32602,0 2.5979,0.52683 3.53554,1.46447 0.93763,0.93763 1.46446,2.20952 1.46446,3.53553 0,1.32602 -0.52683,2.5979 -1.46446,3.53553 -0.93764,0.93764 -2.20952,1.46447 -3.53554,1.46447 -1.32601,0 -2.5979,-0.52683 -3.53553,-1.46447 -0.93763,-0.93763 -1.46447,-2.20951 -1.46447,-3.53553 0,-1.32601 0.52684,-2.5979 1.46447,-3.53553 0.93763,-0.93764 2.20952,-1.46447 3.53553,-1.46447 z"
         style="fill:#000000;fill-opacity:1;fill-rule:nonzero;stroke:#000000;stroke-width:1;stroke-linecap:butt;stroke-linejoin:round;stroke-miterlimit:10;stroke-dasharray:none;stroke-opacity:1"
         transform="matrix(1.3333333,0,0,-1.3333333,0,442.68267)"
         clip-path="url(#clipPath61)" /><text
         id="text61"
         xml:space="preserve"
         style="font-size:37.3333px;stroke-width:1.33333"
         x="123.75803"
         y="40.062717"><tspan
           id="tspan61"
           style="font-variant:normal;font-weight:700;font-size:37.3333px;font-family:'Times New Roman';writing-mode:lr-tb;fill:#000000;fill-opacity:1;fill-rule:nonzero;stroke:none;stroke-width:1.33333"
           x="123.75803"
           y="40.062717">1.601 Mbps</tspan></text><path
         id="path62"
         d="m 422.64812,70.796 h 3.5"
         style="fill:#000000;fill-opacity:1;fill-rule:nonzero;stroke:#000000;stroke-width:0.8;stroke-linecap:butt;stroke-linejoin:round;stroke-miterlimit:10;stroke-dasharray:none;stroke-opacity:1"
         transform="matrix(1.3333333,0,0,-1.3333333,0,442.68267)" /><text
         id="text62"
         xml:space="preserve"
         transform="matrix(1.3333333,0,0,1.3333333,572.86417,357.54842)"><tspan
           id="tspan62"
           style="font-variant:normal;font-weight:normal;font-size:20px;font-family:'Times New Roman';writing-mode:lr-tb;fill:#000000;fill-opacity:1;fill-rule:nonzero;stroke:none"
           x="0"
           y="0">0</tspan></text><path
         id="path63"
         d="m 422.64812,143.66347 h 3.5"
         style="fill:#000000;fill-opacity:1;fill-rule:nonzero;stroke:#000000;stroke-width:0.8;stroke-linecap:butt;stroke-linejoin:round;stroke-miterlimit:10;stroke-dasharray:none;stroke-opacity:1"
         transform="matrix(1.3333333,0,0,-1.3333333,0,442.68267)" /><text
         id="text63"
         xml:space="preserve"
         transform="matrix(1.3333333,0,0,1.3333333,572.86417,260.39179)"><tspan
           id="tspan63"
           style="font-variant:normal;font-weight:normal;font-size:20px;font-family:'Times New Roman';writing-mode:lr-tb;fill:#000000;fill-opacity:1;fill-rule:nonzero;stroke:none"
           x="0"
           y="0">20</tspan></text><path
         id="path64"
         d="m 422.64812,216.53094 h 3.5"
         style="fill:#000000;fill-opacity:1;fill-rule:nonzero;stroke:#000000;stroke-width:0.8;stroke-linecap:butt;stroke-linejoin:round;stroke-miterlimit:10;stroke-dasharray:none;stroke-opacity:1"
         transform="matrix(1.3333333,0,0,-1.3333333,0,442.68267)" /><text
         id="text64"
         xml:space="preserve"
         transform="matrix(1.3333333,0,0,1.3333333,572.86417,163.23516)"><tspan
           id="tspan64"
           style="font-variant:normal;font-weight:normal;font-size:20px;font-family:'Times New Roman';writing-mode:lr-tb;fill:#000000;fill-opacity:1;fill-rule:nonzero;stroke:none"
           x="0"
           y="0">40</tspan></text><path
         id="path65"
         d="m 422.64812,289.39841 h 3.5"
         style="fill:#000000;fill-opacity:1;fill-rule:nonzero;stroke:#000000;stroke-width:0.8;stroke-linecap:butt;stroke-linejoin:round;stroke-miterlimit:10;stroke-dasharray:none;stroke-opacity:1"
         transform="matrix(1.3333333,0,0,-1.3333333,0,442.68267)" /><text
         id="text65"
         xml:space="preserve"
         transform="matrix(1.3333333,0,0,1.3333333,572.86417,66.078537)"><tspan
           id="tspan65"
           style="font-variant:normal;font-weight:normal;font-size:20px;font-family:'Times New Roman';writing-mode:lr-tb;fill:#000000;fill-opacity:1;fill-rule:nonzero;stroke:none"
           x="0"
           y="0">60</tspan></text><text
         id="text66"
         xml:space="preserve"
         transform="matrix(0,-1.3333333,1.3333333,0,626.98917,345.3205)"><tspan
           id="tspan66"
           style="font-variant:normal;font-weight:700;font-size:25px;font-family:'Times New Roman';writing-mode:lr-tb;fill:#000000;fill-opacity:1;fill-rule:nonzero;stroke:none"
           x="0"
           y="0">Packet Loss Rate (%) </tspan></text><path
         id="path66"
         d="m 81.760852,70.796 h 16.151968 20.18996 18.97856 21.40136 40.37992 40.37991 l 40.37992,197.47084 40.37992,-0.72867 40.37992,38.61976 40.37992,3.27903 5.65319,3.27904"
         style="fill:none;stroke:#ff0000;stroke-width:1.5;stroke-linecap:butt;stroke-linejoin:round;stroke-miterlimit:10;stroke-dasharray:5.55, 2.4;stroke-dashoffset:0;stroke-opacity:1"
         transform="matrix(1.3333333,0,0,-1.3333333,0,442.68267)"
         clip-path="url(#clipPath67)" /><g
         id="g69"
         clip-path="url(#clipPath70)"><path
           d="M -4,-4 H 4 V 4 H -4 Z"
           style="fill:#ff0000;fill-opacity:1;fill-rule:nonzero;stroke:#ff0000;stroke-width:1;stroke-linecap:butt;stroke-linejoin:miter;stroke-miterlimit:10;stroke-dasharray:none;stroke-opacity:1"
           transform="matrix(1.3333333,0,0,-1.3333333,109.01447,348.288)"
           clip-path="url(#clipPath68)"
           id="path69" /></g><g
         id="g72"
         clip-path="url(#clipPath73)"><path
           d="M -4,-4 H 4 V 4 H -4 Z"
           style="fill:#ff0000;fill-opacity:1;fill-rule:nonzero;stroke:#ff0000;stroke-width:1;stroke-linecap:butt;stroke-linejoin:miter;stroke-miterlimit:10;stroke-dasharray:none;stroke-opacity:1"
           transform="matrix(1.3333333,0,0,-1.3333333,130.55043,348.288)"
           clip-path="url(#clipPath71)"
           id="path72" /></g><g
         id="g75"
         clip-path="url(#clipPath76)"><path
           d="M -4,-4 H 4 V 4 H -4 Z"
           style="fill:#ff0000;fill-opacity:1;fill-rule:nonzero;stroke:#ff0000;stroke-width:1;stroke-linecap:butt;stroke-linejoin:miter;stroke-miterlimit:10;stroke-dasharray:none;stroke-opacity:1"
           transform="matrix(1.3333333,0,0,-1.3333333,157.47037,348.288)"
           clip-path="url(#clipPath74)"
           id="path75" /></g><g
         id="g78"
         clip-path="url(#clipPath79)"><path
           d="M -4,-4 H 4 V 4 H -4 Z"
           style="fill:#ff0000;fill-opacity:1;fill-rule:nonzero;stroke:#ff0000;stroke-width:1;stroke-linecap:butt;stroke-linejoin:miter;stroke-miterlimit:10;stroke-dasharray:none;stroke-opacity:1"
           transform="matrix(1.3333333,0,0,-1.3333333,182.77512,348.288)"
           clip-path="url(#clipPath77)"
           id="path78" /></g><g
         id="g81"
         clip-path="url(#clipPath82)"><path
           d="M -4,-4 H 4 V 4 H -4 Z"
           style="fill:#ff0000;fill-opacity:1;fill-rule:nonzero;stroke:#ff0000;stroke-width:1;stroke-linecap:butt;stroke-linejoin:miter;stroke-miterlimit:10;stroke-dasharray:none;stroke-opacity:1"
           transform="matrix(1.3333333,0,0,-1.3333333,211.31026,348.288)"
           clip-path="url(#clipPath80)"
           id="path81" /></g><g
         id="g84"
         clip-path="url(#clipPath85)"><path
           d="M -4,-4 H 4 V 4 H -4 Z"
           style="fill:#ff0000;fill-opacity:1;fill-rule:nonzero;stroke:#ff0000;stroke-width:1;stroke-linecap:butt;stroke-linejoin:miter;stroke-miterlimit:10;stroke-dasharray:none;stroke-opacity:1"
           transform="matrix(1.3333333,0,0,-1.3333333,265.15015,348.288)"
           clip-path="url(#clipPath83)"
           id="path84" /></g><g
         id="g87"
         clip-path="url(#clipPath88)"><path
           d="M -4,-4 H 4 V 4 H -4 Z"
           style="fill:#ff0000;fill-opacity:1;fill-rule:nonzero;stroke:#ff0000;stroke-width:1;stroke-linecap:butt;stroke-linejoin:miter;stroke-miterlimit:10;stroke-dasharray:none;stroke-opacity:1"
           transform="matrix(1.3333333,0,0,-1.3333333,318.99005,348.288)"
           clip-path="url(#clipPath86)"
           id="path87" /></g><g
         id="g90"
         clip-path="url(#clipPath91)"><path
           d="M -4,-4 H 4 V 4 H -4 Z"
           style="fill:#ff0000;fill-opacity:1;fill-rule:nonzero;stroke:#ff0000;stroke-width:1;stroke-linecap:butt;stroke-linejoin:miter;stroke-miterlimit:10;stroke-dasharray:none;stroke-opacity:1"
           transform="matrix(1.3333333,0,0,-1.3333333,372.82994,84.993542)"
           clip-path="url(#clipPath89)"
           id="path90" /></g><g
         id="g93"
         clip-path="url(#clipPath94)"><path
           d="M -4,-4 H 4 V 4 H -4 Z"
           style="fill:#ff0000;fill-opacity:1;fill-rule:nonzero;stroke:#ff0000;stroke-width:1;stroke-linecap:butt;stroke-linejoin:miter;stroke-miterlimit:10;stroke-dasharray:none;stroke-opacity:1"
           transform="matrix(1.3333333,0,0,-1.3333333,426.66983,85.965108)"
           clip-path="url(#clipPath92)"
           id="path93" /></g><g
         id="g96"
         clip-path="url(#clipPath97)"><path
           d="M -4,-4 H 4 V 4 H -4 Z"
           style="fill:#ff0000;fill-opacity:1;fill-rule:nonzero;stroke:#ff0000;stroke-width:1;stroke-linecap:butt;stroke-linejoin:miter;stroke-miterlimit:10;stroke-dasharray:none;stroke-opacity:1"
           transform="matrix(1.3333333,0,0,-1.3333333,480.50972,34.472096)"
           clip-path="url(#clipPath95)"
           id="path96" /></g><g
         id="g99"
         clip-path="url(#clipPath100)"><path
           d="M -4,-4 H 4 V 4 H -4 Z"
           style="fill:#ff0000;fill-opacity:1;fill-rule:nonzero;stroke:#ff0000;stroke-width:1;stroke-linecap:butt;stroke-linejoin:miter;stroke-miterlimit:10;stroke-dasharray:none;stroke-opacity:1"
           transform="matrix(1.3333333,0,0,-1.3333333,534.34961,30.100048)"
           clip-path="url(#clipPath98)"
           id="path99" /></g><g
         id="g102"
         clip-path="url(#clipPath103)"><path
           d="M -4,-4 H 4 V 4 H -4 Z"
           style="fill:#ff0000;fill-opacity:1;fill-rule:nonzero;stroke:#ff0000;stroke-width:1;stroke-linecap:butt;stroke-linejoin:miter;stroke-miterlimit:10;stroke-dasharray:none;stroke-opacity:1"
           transform="matrix(1.3333333,0,0,-1.3333333,541.8872,25.728)"
           clip-path="url(#clipPath101)"
           id="path102" /></g><path
         id="path104"
         d="M 65.528125,58.7 V 324.812"
         style="fill:none;stroke:#000000;stroke-width:0.8;stroke-linecap:square;stroke-linejoin:miter;stroke-miterlimit:10;stroke-dasharray:none;stroke-opacity:1"
         transform="matrix(1.3333333,0,0,-1.3333333,0,442.68267)" /><path
         id="path105"
         d="M 422.64812,58.7 V 324.812"
         style="fill:none;stroke:#000000;stroke-width:0.8;stroke-linecap:square;stroke-linejoin:miter;stroke-miterlimit:10;stroke-dasharray:none;stroke-opacity:1"
         transform="matrix(1.3333333,0,0,-1.3333333,0,442.68267)" /><path
         id="path106"
         d="M 65.528125,58.7 H 422.64812"
         style="fill:none;stroke:#000000;stroke-width:0.8;stroke-linecap:square;stroke-linejoin:miter;stroke-miterlimit:10;stroke-dasharray:none;stroke-opacity:1"
         transform="matrix(1.3333333,0,0,-1.3333333,0,442.68267)" /><path
         id="path107"
         d="M 65.528125,324.812 H 422.64812"
         style="fill:none;stroke:#000000;stroke-width:0.8;stroke-linecap:square;stroke-linejoin:miter;stroke-miterlimit:10;stroke-dasharray:none;stroke-opacity:1"
         transform="matrix(1.3333333,0,0,-1.3333333,0,442.68267)" /></g></g><metadata
     id="metadata2"><rdf:RDF><cc:Work
         rdf:about=""><dc:title>Metrics</dc:title></cc:Work></rdf:RDF></metadata></svg>
